<svg id="Layer_1" data-name="Layer 1" xmlns="http://www.w3.org/2000/svg" viewBox="0 0 2479.89 3216.87"><defs><style>.cls-1{fill:#33c1ff;}</style></defs><title>favicon_blue</title><path class="cls-1" d="M2081.7,145.6c-.1.1-3.7.5-7.9.8-14.6,1.2-34.5,7.1-50.5,14.9-38.6,18.9-68.1,54.2-79.2,95-1.2,4.3-2.4,9.5-2.7,11.5s-.7,4.4-.9,5.2c-1.7,6.4-2.4,23.9-1.3,35.5,6,70,58.5,125.3,129.8,137,1.9.3,8.7.8,15,1.1s11.8.9,12.1,1.3,3,8.2,5.8,17.6,6.7,21.9,8.6,28,5.5,17.7,8,26,6.7,21.5,9.2,29.5,4.7,15.6,4.9,16.9a12,12,0,0,0,1,3.2c.4.8,28.6,91.7,33,106.8,1.4,4.6,2.3,8.6,2,8.8-.4.5-245.8,102.8-388.1,161.9-25.8,10.8-47.9,19.9-49,20.4s-6.5,2.8-12,5.1-11.3,4.7-13,5.4-5.9,2.5-9.5,3.9c-6.7,2.8-8.1,3.4-14,5.9-1.9.8-7.5,3.2-12.5,5.2s-10.3,4.2-12,5-15.1,6.3-30,12.4c-26.7,11.1-40.8,17-47.4,19.9-16.4,7.1-19.1,7.8-19.1,4.9a70.81,70.81,0,0,0-2.4-8.7c-1.3-4.1-4.3-13.6-6.6-21s-4.4-14.2-4.7-15a23,23,0,0,1-.8-2.5c-.2-.6-2.6-8.5-5.5-17.5-5.5-17.4-8.2-26.1-15.1-48l-8.4-27c-2.4-7.4-6.2-19.6-8.6-27s-4.4-14-4.6-14.6,3.4-3.2,8.1-5.7a267.45,267.45,0,0,0,36.6-24.4c7.4-5.9,29.7-27.4,34-32.9,24.7-31.1,39.9-61.1,48.6-95.9,2.7-10.6,2.8-11.2,4-19,.4-2.8.9-5.7,1-6.5,1.7-10.3,2.4-39.8,1.2-53.5-.9-10.2-3-23.6-4.8-30.5-.5-1.9-1.1-4.6-1.4-6s-1.2-4.9-2.1-7.9-1.8-6.2-2-7c-.9-4-8.1-21.6-12.6-30.9-17.1-35.3-41-63.8-75.9-90.5-3-2.3-13.3-8.9-20.3-13.1-29-17-66.7-29.1-100.5-32.3-16.9-1.5-46.6-.7-60.7,1.7-3.3.6-7.6,1.3-9.5,1.6-12.3,1.8-38.1,9.9-53.3,16.5a249.92,249.92,0,0,0-87.7,65.4c-2.3,2.7-5.1,6-6.1,7.3-4.3,5.1-15,21.3-20.6,31.2a243.93,243.93,0,0,0-29,91c-1,9.7-1,41.6,0,50q10,84.75,69.6,144c46.2,46,107.6,71.3,173.1,71.4,12.4,0,30.7-1.1,31.9-1.9.9-.5,2.6,4.3,8.6,23.5,1.5,4.7,3.9,12.5,5.5,17.5s6.2,20,10.4,33.5,8.1,25.6,8.6,27,2.7,8.6,5,16,5.9,18.9,8,25.5,5.2,16.7,7,22.5,4.4,13.9,5.7,18,2.6,7.9,2.7,8.5,1.8,6.2,3.8,12.5c10.7,33.8,16.6,52.4,28.3,90,8.1,25.9,25.2,80.5,33.6,107,2.2,6.9,4.2,13.2,4.4,14,.5,2,9.7,31.4,18.5,59,3.9,12.4,7.5,23.8,8,25.5s2.2,7.5,4,13c6.7,21.1,10,32,10,33.1,0,.7-1.2,1.5-2.6,1.8-4,1-30.1,12.9-44.6,20.3-31.2,15.8-69.4,40.6-93.3,60.4-19.7,16.4-48.2,43.5-61.5,58.4-6.5,7.3-19.6,22.9-22.6,27-1.6,2.2-3.1,4.2-3.4,4.5-1.2,1-9.9,12.9-16.2,22a532.47,532.47,0,0,0-75.8,165.5c-2.3,8.7-6.8,29-7.6,34.4-.3,1.8-.8,4.3-1,5.5-4.9,24.1-7.8,58.4-7.8,91.1,0,17.4.9,41.4,1.8,46.5.3,1.4.7,5.4,1,9,1.1,11.6,4,31.6,6.1,42,.2,1.4,1.2,6.1,2.1,10.5,6,30.1,18.1,67.9,32.5,101.5,5,11.6,19.6,40.1,27.7,54,13.1,22.5,33.5,51.6,48.7,69.8,1.1,1.3,2.8,3.3,3.8,4.5,20.8,25.3,55.9,58.6,84.7,80.4,6.9,5.2,12.6,9.9,12.8,10.3s-1.8,4-4.4,7.7-8.2,11.7-12.4,17.8-9.8,14.1-12.5,18c-8.6,12.3-34.6,49.7-41.4,59.5-3.6,5.2-10.5,15.1-15.3,22l-13.2,19c-13.2,18.9-34.8,50-39.6,57-3,4.5-8.6,12.6-12.5,18s-9,12.9-11.5,16.5-5.6,8.1-7,10-7.6,10.8-13.9,19.9-11.5,16.6-11.7,16.6-3.7-1.6-8-3.6c-16.7-7.7-48.5-18.5-60.9-20.7-1.6-.3-4.1-.8-5.5-1.2-3.8-.8-8.5-1.6-20-3.4-12.3-1.9-22.6-2.5-44-2.5-18.6,0-26.3.3-38,1.9-1.4.2-4.7.6-7.5,1s-5.7.8-6.5,1-3.3.7-5.5,1.1c-13.4,2-44.8,11.6-62.5,19.1a324.87,324.87,0,0,0-79.4,49.3c-6.4,5.4-28.6,27.8-33.7,34-3,3.6-5.6,6.7-6,7s-3.9,5.2-8,11a295.79,295.79,0,0,0-47.4,101.7,212.34,212.34,0,0,0-6,29.8c-.4,2.2-.8,5.1-1,6.5-2.4,14.5-2.5,57.5-.1,72,.3,1.4.7,4.7,1.1,7.5,3.4,27,13.9,60.4,28,88.6,32.1,64.6,88.1,116.8,154.5,144.2,22.3,9.2,52,17.6,72,20.2,1.4.2,3.9.6,5.5.9,12.7,2.1,57.4,3,71.5,1.3a340.63,340.63,0,0,0,34.5-5.3c45.5-9.5,91.1-31.2,128.1-60.9,11.8-9.6,34.5-31.8,43.8-42.9,23.5-28.2,44.2-66.5,54.5-100.6,5-16.7,7.3-25.9,8.7-35a20.29,20.29,0,0,1,.9-4,63.59,63.59,0,0,0,1-7.5,54.33,54.33,0,0,1,1.1-7.6,100.93,100.93,0,0,0,1.1-10.5c1.3-17.7.7-48.1-1.2-61.4-9.9-68.5-37.4-124.4-85.2-172.9l-13.2-13.4,16.8-24.1c9.2-13.3,18.8-27,21.2-30.5s5.8-8.2,7.4-10.6,5.4-7.8,8.4-12.2c5.5-7.8,10.2-14.6,26.1-37.5,4.8-6.8,16.3-23.3,25.6-36.8s19.6-28.1,22.7-32.5,8.4-12.1,11.8-17c8.7-12.6,15.7-22.7,27.1-39,5.3-7.7,11.7-16.8,14-20.3s4.8-6.9,5.3-7.5,3.3-4.5,6-8.5,5.3-7.6,5.8-7.9,4.7,1.4,9.5,3.7a524,524,0,0,0,64.5,26.2c8.2,2.7,15.6,5.1,16.5,5.3s6,1.6,11.2,3c15.7,4.3,24.5,6.4,43,10,1.4.3,6.3,1.2,11,1.9,7.5,1.3,11.2,1.8,22,3.2,1.3.1,4.5.5,7,.9,21.7,2.8,68.9,3.9,96.5,2.2a545.84,545.84,0,0,0,109-18.3c15.6-4.3,42.9-13.2,50-16.4,1.1-.5,5.6-2.3,10-4s8.4-3.4,9-3.8a5.28,5.28,0,0,1,2.2-.8c3.4-.5,48-23.6,62.5-32.3,9.3-5.6,17-10.1,17.3-10.1a10.29,10.29,0,0,1,2.8,2.4c2.5,2.7,16.3,17.9,24.7,27.1,3,3.4,9.6,10.6,14.6,16s14.2,15.6,20.4,22.5,11.6,12.7,11.9,13,4,4.3,8.1,9,8.6,9.6,10,11,6.5,7.1,11.5,12.5,9.2,10.2,9.5,10.5,5,5.4,10.5,11.5,10.4,11.5,11,12.1,4.6,5.1,9,10,8.7,9.5,9.5,10.4,6,6.5,11.4,12.5,14.1,15.5,19.1,21c11.3,12.3,13,14.1,21.5,23.5,3.7,4.1,7.9,8.7,9.1,10.1,12.3,13.4,19.6,21.4,20.9,22.9,1.8,2.1,16.3,18,24.1,26.4,3.1,3.4,7.3,8.1,9.5,10.5s6.5,7.2,9.6,10.5,5.8,6.5,5.8,6.9-1.9,3.6-4.2,7c-4.3,6.5-18.6,33.7-20.8,39.7-6.3,17.3-8.4,23.8-10.6,31.9a307.89,307.89,0,0,0-7.1,39.6c-1.4,14.7-.8,45.1,1.2,56.5.2,1.4.7,4.5,1,7a303.16,303.16,0,0,0,7.6,32.5c4.7,15.4,19.2,48.3,21.9,50,3.1,1.9,1.8,2.9-41,30.2-1.9,1.2-4.8,3.2-6.5,4.3-3.2,2.3-27.2,17.9-53,34.5-8.6,5.5-23.9,15.5-34.2,22.2s-18.8,12.3-19,12.3-5.7,3.6-12.3,8-12.2,8-12.5,8a5,5,0,0,0-2,1.3c-.7.6-9,6.1-18.4,12.2-17.6,11.3-45.9,29.6-70.3,45.6-7.6,4.9-13.9,8.9-14.1,8.9a35.72,35.72,0,0,1-4.8-4.1,211.09,211.09,0,0,0-88.9-48.8c-31.6-8.3-67.3-8.8-98.5-1.5-5.5,1.3-11.1,2.6-12.4,3-9.5,2.1-39,15.1-48.7,21.4-30,19.5-48.3,37.2-65.7,63.5-11.3,17.1-25.1,49.4-27.2,63.7a22.62,22.62,0,0,1-1.1,4.9c-1.4,2.3-3.7,23.9-3.9,36.9a198.4,198.4,0,0,0,10,66.6c3.8,11.5,9.8,25.4,12.9,29.9,1.2,1.6,2,3.1,1.8,3.3-.5.5,14.2,23.1,18.3,28.1,20.2,24.4,42.6,42.6,68.4,55.5,5.8,2.9,12,5.8,13.6,6.4,11,4.2,14.8,5.5,21,7.3,3.9,1.1,7.7,2.2,8.5,2.4,6.4,1.5,11.6,2.6,14.8,3.1,2,.3,4.4.7,5.2.9,8.7,2.4,49.1,2.4,61,0,1.3-.2,4.2-.7,6.5-1,7-1.1,26.2-6.1,32-8.5,1.1-.4,5.2-2,9-3.5,36.9-14.6,70.6-42,93.4-75.7,2.9-4.2,6.3-9.8,7.7-12.4s3.5-6.5,4.8-8.8c4.9-8.8,14-33.8,16-44.1.4-1.7.9-4.1,1.2-5.5,2.7-13.1,3.7-22.6,3.8-38.5.1-9.9-.1-19.8-.5-22s-1-6-1.2-8.5c-1.4-11.7-6.9-32.6-12.2-46.1-.4-1.2,1.6-3,7.7-7,4.6-2.9,8.7-5.6,9.2-5.8s5.5-3.4,11-7.1,12.6-8.2,15.6-10.2c15.1-9.8,113.8-73.9,122.8-79.7,5.6-3.6,17.3-11.2,25.8-16.9s15.7-10.2,15.9-10.2,5.6-3.5,12.1-7.8c14.1-9.2,27.2-17.8,52.4-34.1l18.4-11.9,3.1,2.5c1.6,1.4,7.5,5.8,13,9.9s10.5,7.8,11.2,8.4a5.6,5.6,0,0,0,1.8,1,25.74,25.74,0,0,1,5.1,3.1c5.9,4,21.1,12,31.6,16.5,23,10,52.5,17.9,74.3,19.9,1.1.1,5.2.6,9,1,7.3.7,33,.8,40,0,2.2-.2,6.9-.7,10.5-1s7.2-.8,8-1,3.1-.6,5-.9,6.9-1.2,11-2.1,8.5-1.9,9.8-2.1,9.1-2.7,17.5-5.5c44.4-14.6,87-43.9,116.9-80.4,21.9-26.8,41-65.1,48.4-97,.9-3.9,1.8-7.9,2-9,3.4-14.6,4.9-30.4,4.9-51.5-.1-17.7-.4-22.5-2.4-37-6.3-44.5-27.8-90.2-58.9-125.7a255.48,255.48,0,0,0-170.7-86c-14.9-1.3-42-.7-55.5,1.1-5,.7-10.6,1.6-13,2.1-3.9.8-7.2,1.5-10.2,2-6.3,1.2-27.8,7.8-37.5,11.6-18.4,7.2-44.2,21.4-56.4,31l-3.7,2.9-3.7-4.3c-2.1-2.3-8.2-8.9-13.5-14.7s-11.4-12.5-13.6-15-4.8-5.4-5.9-6.5-5.6-6.1-10-11-9.3-10.3-11-12.1-4.6-4.9-6.5-7.1c-8.3-9.2-22.9-25.2-27-29.7-2.5-2.7-4.9-5.4-5.5-6-6.5-7.3-20.3-22.4-21.5-23.6-1.6-1.7-7.3-7.9-19.5-21.4-4.4-4.9-9.1-10.1-10.5-11.6-5.3-5.7-19.6-21.3-21.3-23.4-1-1.1-5.6-6.2-10.1-11.1s-13.3-14.6-19.6-21.5c-13.5-15-27.7-30.5-30.5-33.4-1.1-1.2-4-4.4-6.5-7.2s-8.8-9.7-14.1-15.4-13.4-14.7-18-19.9l-8.5-9.4,6.1-5.6c16.6-15.5,36.4-36.3,49-51.6,2.8-3.3,5.2-6.2,5.6-6.5,2.1-2,23.8-31.8,30.4-42,7.5-11.5,17.1-27.4,18.8-31,.4-.8,1.9-3.5,3.3-6,5.3-9.1,16.3-31.9,21.4-44,2.8-6.9,5.6-13.4,6.1-14.5,6-13.2,17.3-49.7,22.5-72.6,3.2-14.2,3.1-13.6,5-24.4a87,87,0,0,1,1.9-9.5c.1-.3.6-3.6,1-7.5a63.59,63.59,0,0,1,1-7.5,63.59,63.59,0,0,0,1-7.5c.4-3.9.9-7.7,1-8.5,1.9-10.3,2.8-77.7,1.2-94.5-1.4-14.3-4.5-39.8-5.2-42.5-.2-.8-.6-3.3-1-5.5s-1.2-7.4-2.1-11.5-1.8-8.6-2-10-.7-3.3-1-4.2a34.21,34.21,0,0,1-1-4.5c-2.9-15.8-18.5-64-26.8-82.8-1-2.2-2.2-4.9-2.6-6-6.2-15.1-26.6-53.9-35.2-66.8a67.93,67.93,0,0,1-3.8-6.2c0-.9-13.6-20.4-21.9-31.5-7.1-9.5-28-35.2-30.1-37-.3-.3-2.9-3-5.8-6.1l-5.2-5.6,14.2-14.6c7.9-8,30.8-31.3,50.9-51.9s44.5-45.3,54-55c49.7-50.7,87.6-89.3,97.4-99.3,6.1-6.2,29.5-30.1,52.1-53.1s46.3-47.1,52.5-53.6,28.7-29.3,49.9-50.8,45-45.9,53-54.1l14.5-14.8,7.5,4.6a243.79,243.79,0,0,0,107,34.8c13.8,1.2,38.6.6,48-1,1.4-.2,4.7-.7,7.4-1a28.35,28.35,0,0,0,5.5-1,36.52,36.52,0,0,1,4.1-.9c28.7-4.5,66.8-20.9,93-40,30.8-22.5,54.7-50.3,71.4-83.1,8.6-16.8,13.3-28.8,17.6-44.7,1.2-4.3,2.4-8.8,2.8-10s.8-22.8,1-47.8c.3-51.4.3-51.8-7.9-76.5-7.1-21.3-25.4-55-37.1-68.7-1.3-1.4-3.9-4.6-5.8-7-5.4-6.7-21.7-22.6-30-29.4-7.3-6-24.6-18.4-25.6-18.4a41.42,41.42,0,0,1-4.7-2.7c-5.2-3.3-27.3-14.3-28.7-14.3a8.07,8.07,0,0,1-2.8-.9c-2.1-1.1-5.4-2.4-10.9-4.5-4.1-1.5-25-7.3-29.6-8.1-1.2-.3-3.3-.7-4.7-1s-4.7-.7-7.5-1.1a30.14,30.14,0,0,1-5.6-1c-1.1-.6-21.8-1.8-32.4-1.8a233.62,233.62,0,0,0-34,2.4c-3.3.6-7.6,1.3-9.5,1.6-16.7,2.6-40.7,10.7-60.5,20.4-46.6,22.9-82.5,57.9-106,103.5-11.2,21.8-20.1,49.7-23,72.5-.4,3-.9,6.4-1.2,7.5s-.6,10.3-.8,20.5c-.3,16,.3,27.3,1.9,37,2.1,13,2.8,16.4,3.1,17.1a18.54,18.54,0,0,1,1.1,4.4c1,6.6,9,29.7,13.9,40.5,5.6,12.2,13.9,26.9,20.1,35.7,2.4,3.4,4.4,6.5,4.4,7,0,1-9.5,10.8-67.1,69.5-21.8,22.1-44.7,45.5-50.9,51.8s-28.6,29.2-49.9,50.8-44.2,45.1-51,52-30,30.7-51.6,52.7-45.3,46.2-52.6,53.7-30.6,31.1-51.5,52.5-44,44.8-51.1,52-13.3,13.3-13.7,13.3-4.8-3.1-9.9-6.8c-8.3-6.2-18.7-13.6-22.7-16.2a565.52,565.52,0,0,0-99.5-51.8c-24.6-9.8-64.9-22-84.5-25.7-1.4-.3-3.6-.7-5-1-5.9-1.3-30.8-5.5-34.9-6-2.5-.3-6.2-.7-8.1-1s-6-.7-9-1-7.1-.8-9-1c-20.4-2.4-82.7-2.4-97-.1-1.4.3-6.1.7-10.5,1.1s-8.7.8-9.5,1-3.7.6-6.5,1-7.9,1.1-11.5,1.6-7.8,1.3-9.5,1.6-8.4,1.5-14.9,2.9-12,2.3-12.1,2.2c-.7-1.1-3.2-8.7-7.6-22.8-2.8-9.1-6.3-20.6-7.9-25.5s-6-19.1-9.9-31.5-9.7-31.3-13.1-42c-8.7-27.6-11.2-35.4-16.8-53.5-6.3-20-14.7-46.9-21.7-69-10.2-32.4-12.5-39.8-12.3-40.1.2-.1,4.4-1.9,9.3-3.9s9.5-4,10-4.3a11.33,11.33,0,0,1,2-.9c.6-.1,22.2-9,48-19.8s52.4-21.9,59-24.6,12.9-5.4,14-5.9,17.3-7.3,36-15c52.1-21.6,57.8-24,60-25,1.1-.5,18.4-7.8,38.5-16.1s38.3-15.9,40.5-16.8,6-2.5,8.5-3.5,5.9-2.4,7.5-3.1,5.9-2.6,9.5-4,7.9-3.2,9.5-4l24-10c11.6-4.7,21.9-9,23-9.5,4.2-1.9,17.2-7.3,51.5-21.5,33.3-13.8,39.5-16.4,44.5-18.6,6.2-2.7,40.6-16.9,41-16.9.2,0,2.8-1.1,5.7-2.4s14.8-6.3,26.3-11,21.9-9.1,23-9.6c4.6-2,17.9-7.6,51.5-21.5,19.5-8.1,35.9-15.1,36.4-15.5s-4.4-17.8-10.9-38.7c-23.8-77.4-24.9-80.8-29.5-95.8-1-3.3-3.7-12.1-6-19.5-4.1-13.1-5.9-19-9.9-32.3-1-3.4-4-13-6.5-21.2s-6.1-19.5-7.8-25-4.1-13.5-5.4-17.8-3.5-11.2-4.8-15.5-3.8-12.4-5.6-18.2-4-13-5-16c-1.8-5.5-1.8-5.5.3-7,26.6-18.6,43.7-38.3,55.9-64.1,5.7-12.1,9.2-24,12.5-42.4,1-5.3,1-33.7.1-40.2a149.43,149.43,0,0,0-13.3-44c-4.3-9.2-13-23.5-14.6-24.1a1.94,1.94,0,0,1-.9-1.7c0-2.4-25.2-27-33.7-32.9-20.8-14.4-47.4-24.7-70.3-27.2C2105.2,145.8,2082.2,145.1,2081.7,145.6ZM1829.5,1526.3c1.1.3,5.4.8,9.5,1.2s8.2.9,9,1,5.6,1.1,10.5,2,10,1.9,11.2,2.1c5.3,1,27,7.6,36,11a290.85,290.85,0,0,1,122.6,86.4,272.4,272.4,0,0,1,36.1,55c6.5,13,8.2,16.7,10.7,23.5l3.8,10.5c5,13.5,11,37.4,12.7,50.5a32.21,32.21,0,0,0,.9,5.5c1.8,2.9,2.7,49.8,1.2,64-1.2,11.4-4.1,30.3-5.3,34.2-.3,1-.7,2.9-1,4.3-1.2,6.5-8,28.2-12.1,38.5-8.8,22.2-24.5,50.9-34.9,63.9-.7.9-4.9,6.2-9.4,11.9a340.24,340.24,0,0,1-35.9,37.2c-31.1,26.9-71.5,48.6-110.1,59.3-16.2,4.5-22,5.9-31,7.3-1.9.3-6.2.9-9.5,1.5-11,1.7-22.8,2.4-41.5,2.4-19.9,0-31.3-.8-45-3-2.5-.4-5.4-.9-6.5-1.1s-3.1-.5-4.5-.8c-5.9-1.3-7.6-1.7-9.5-2-22.9-4.4-63.7-20.6-83.7-33.2a19.91,19.91,0,0,0-4.7-2.4,1.65,1.65,0,0,1-1.3-.8c-.1-.4-2.3-2-4.8-3.4-4.2-2.4-24.7-17.4-28-20.5-.8-.7-4.4-3.9-7.9-7.1a286.57,286.57,0,0,1-92.6-170c-3.5-22.4-3.9-54.5-1-77.2a187.21,187.21,0,0,1,3.6-22c1.1-5.2,2.7-12.2,3.6-15.5s1.6-6.5,1.8-7a17.66,17.66,0,0,1,.8-2.5c.3-.8,1.3-4,2.3-7,14.6-47.1,45.4-92.7,87.2-129.2,20.1-17.6,52.9-37.3,80-48.2,12.5-5,35.7-12.4,44.2-14,1.4-.3,5.9-1.2,10-2a255,255,0,0,1,30.5-4.2,67,67,0,0,0,7.2-.8C1785.2,1525.2,1827.5,1525.8,1829.5,1526.3Z" transform="translate(-514 -145.43)"/><path class="cls-1" d="M2513.8,296.5a21.51,21.51,0,0,1-4.8.9,111.34,111.34,0,0,0-64.2,31.8c-10,9.9-13,13.7-19.1,24.3a116.83,116.83,0,0,0-12.7,34c-2.9,13.4-2.2,35.3,1.4,49,3.3,12.6,11.1,28.7,18.8,38.8,6,8,16.2,18.5,20.8,21.5,1.4.9,4.3,3,6.5,4.7,5.6,4.2,21.7,11.9,30,14.4,23,6.9,49,6.7,70.8-.5,39.8-13.1,70.3-48.7,76.7-89.5,9.5-61.2-33.8-119.2-96-128.5C2537.7,296.8,2514.3,296,2513.8,296.5Z" transform="translate(-514 -145.43)"/><path class="cls-1" d="M835.5,467.1c-29.2,4.3-58.3,21.9-75.9,45.9-6.3,8.7-14,24.5-17,35-14.6,51.5,10,106.6,58.3,130.5,44.4,22.1,97.7,13.7,132.4-20.9,7.4-7.3,17-19.6,18.5-23.6a5.28,5.28,0,0,1,1.2-2c1.3-1,8-17.7,9.9-25,1.1-4.1,2.4-10.7,3-14.5.9-6.9.7-25.2-.3-31-.8-4.3-1.9-9.9-2.1-10.5-.9-3.9-5.5-16-8.2-21.4a115.19,115.19,0,0,0-51.1-51.5A129.21,129.21,0,0,0,872,467.7C862.5,466,844.5,465.8,835.5,467.1Z" transform="translate(-514 -145.43)"/><path class="cls-1" d="M2052.8,931.4c-.1.2-4.3.6-9.3,1-8.7.5-22.8,3.4-29,5.8-17.6,6.8-31.4,15.7-44.1,28.5-5.2,5.2-9.4,9.8-9.4,10.3a18.41,18.41,0,0,1-2.9,4.4c-5,6.3-14.2,26.5-15.7,34.5a20.09,20.09,0,0,1-.9,3.2c-.6.9-1.4,6.2-2.4,14.7-6.2,58.8,37.7,113.5,97.9,122,6.2.9,25.3.8,32-.1,43.3-6,79.1-36.2,92.9-78.7,2.3-7.1,2.5-7.9,4.1-19,6.6-46-20-94.3-62.9-114.7-5.6-2.6-17.8-7.1-21.6-7.9a124.53,124.53,0,0,0-18.6-2.9c-4-.4-7.9-.8-8.6-1A2.7,2.7,0,0,0,2052.8,931.4Z" transform="translate(-514 -145.43)"/><path class="cls-1" d="M616.7,2316.6c-.1.1-2.7.4-5.7.7-10.2,1.1-23.5,4.4-30.5,7.6-17,7.7-26.5,14.1-37.4,25a105.53,105.53,0,0,0-21,28.6c-8.1,15.9-8.1,16-8.1,50.5,0,27.5.2,31.2,1.9,36.1,15.7,45.1,59.2,76,107.1,76.2,32.5.1,60.5-11.4,83-34.2,48.6-49.2,41.3-129.2-15.5-169.6-14.9-10.6-34.2-18.1-52-20.1C633.1,2316.8,617.2,2316.2,616.7,2316.6Z" transform="translate(-514 -145.43)"/><path class="cls-1" d="M1830.6,2545.7c-40.6,5.9-75.8,33.9-90.1,71.8a81.66,81.66,0,0,0-3.1,9c-5,22.2-5.3,39.7-.9,57.5,1,4.2.8,3.6,4.8,14,9.5,24.9,31.1,48.1,56.1,60,7.1,3.3,18.6,7.4,23.6,8.4,1.9.3,4.6.8,6,1.1,17.7,3.5,38.9,1.9,56.8-4.1,22.3-7.6,42.9-22.5,56.3-40.9a111.77,111.77,0,0,0,16-100c-8.5-26.1-28-49.8-51.9-63.2A117.09,117.09,0,0,0,1830.6,2545.7Z" transform="translate(-514 -145.43)"/></svg>