<svg id="Layer_1" data-name="Layer 1" xmlns="http://www.w3.org/2000/svg" viewBox="0 0 40.96 53.13"><defs><style>.cls-1{fill:#33c1ff;}</style></defs><title>favicon_blue_small</title><path class="cls-1" d="M32.36,4.77l-.13,0A2.5,2.5,0,0,0,30.09,6.6L30,6.79s0,.07,0,.09a2.1,2.1,0,0,0,0,.58,2.52,2.52,0,0,0,2.14,2.27h.25l.2,0a2.78,2.78,0,0,1,.09.29c.05.15.11.36.15.46L33,11l.15.49c0,.13.08.25.08.27s0,0,0,.06.47,1.51.54,1.76a.64.64,0,0,1,0,.15l-6.41,2.67-.81.34-.2.08-.22.09-.15.06-.23.1-.21.09-.2.08-.5.21-.78.32c-.27.12-.31.13-.31.09a1.17,1.17,0,0,0,0-.15l-.11-.35c0-.12-.07-.23-.08-.24a.1.1,0,0,0,0,0,2.1,2.1,0,0,1-.09-.29c-.09-.29-.14-.43-.25-.8l-.14-.44-.14-.45-.08-.24.13-.09a4.34,4.34,0,0,0,.61-.41,5.81,5.81,0,0,0,.56-.54,4,4,0,0,0,.8-1.58,1.89,1.89,0,0,0,.07-.32.56.56,0,0,1,0-.1,8.41,8.41,0,0,0,0-.89,4.39,4.39,0,0,0-.08-.5s0-.08,0-.1,0-.08,0-.13l0-.12a5,5,0,0,0-.2-.51A4.12,4.12,0,0,0,23.41,8l-.33-.22a4.2,4.2,0,0,0-1.66-.53,4.68,4.68,0,0,0-1,0l-.16,0a4.65,4.65,0,0,0-.88.28,4,4,0,0,0-1.45,1.08l-.1.12a4.48,4.48,0,0,0-.34.51,4,4,0,0,0-.48,1.5,5.75,5.75,0,0,0,0,.83A3.89,3.89,0,0,0,18.16,14,4,4,0,0,0,21,15.21a4.37,4.37,0,0,0,.53,0s0,.07.14.38c0,.08.06.21.09.29s.1.33.17.56.13.42.14.44a2.66,2.66,0,0,1,.08.27c0,.12.1.31.14.42l.11.37c0,.1.08.23.1.3a1.19,1.19,0,0,1,0,.14l.06.2c.18.56.28.87.47,1.49.14.43.42,1.33.56,1.77,0,.11.07.22.07.23l.3,1c.07.21.13.4.14.42a1.26,1.26,0,0,0,.06.22c.11.35.17.53.17.55s0,0-.05,0l-.73.34a8.7,8.7,0,0,0-1.54,1,12.19,12.19,0,0,0-1,1c-.11.12-.32.38-.37.45s-.05.07-.06.07l-.27.37a8.79,8.79,0,0,0-1.25,2.73c0,.14-.11.48-.12.57a.37.37,0,0,0,0,.09,8.21,8.21,0,0,0-.13,1.5c0,.29,0,.69,0,.77a1.39,1.39,0,0,1,0,.15c0,.19.06.52.1.69s0,.1,0,.18a9,9,0,0,0,.54,1.67,9.52,9.52,0,0,0,1.26,2.05l.06.07a9.87,9.87,0,0,0,1.4,1.33l.22.17a.42.42,0,0,1-.08.13l-.2.29-.21.3-.68,1-.26.36c-.07.12-.17.26-.21.32l-.66.94L20,43l-.19.27-.12.16-.23.33-.19.28L19.13,44a5.45,5.45,0,0,0-1-.34l-.09,0-.33-.06a4.49,4.49,0,0,0-.73,0,3.71,3.71,0,0,0-.63,0l-.12,0h-.11l-.09,0a5.18,5.18,0,0,0-1,.32,5,5,0,0,0-1.31.81c-.11.09-.47.46-.56.56l-.1.12-.13.18a5,5,0,0,0-.78,1.68,3.54,3.54,0,0,0-.1.49s0,.09,0,.11a5.92,5.92,0,0,0,0,1.19s0,.08,0,.12A4.95,4.95,0,0,0,15,53a5.34,5.34,0,0,0,1.19.33l.09,0a9.23,9.23,0,0,0,1.18,0,4.92,4.92,0,0,0,.57-.09,5.14,5.14,0,0,0,2.12-1,6.9,6.9,0,0,0,.72-.71,4.88,4.88,0,0,0,.9-1.66,4.1,4.1,0,0,0,.15-.57.24.24,0,0,1,0-.07l0-.12c0-.07,0-.13,0-.13s0-.08,0-.17A4.87,4.87,0,0,0,20.58,45l-.22-.22.28-.4.35-.51.12-.17.14-.2.43-.62.42-.61.38-.54.19-.28.45-.64.23-.34.09-.12.1-.14a.48.48,0,0,1,.09-.13l.16.06a7.71,7.71,0,0,0,1.07.43l.27.09.18.05a6.24,6.24,0,0,0,.71.16l.18,0,.37.05h.11a10.35,10.35,0,0,0,1.6,0,9.66,9.66,0,0,0,1.8-.3c.26-.07.71-.22.82-.27l.17-.07.15-.06,0,0a8.57,8.57,0,0,0,1-.53l.28-.17,0,0,.41.45c0,.06.15.18.24.27l.33.37.2.21a1.46,1.46,0,0,1,.13.15l.17.18.19.21a1.47,1.47,0,0,0,.16.17l.17.19.18.2.15.17.16.17.18.21.32.34c.19.21.21.24.36.39l.15.17.34.38.4.43.16.18.15.17a.58.58,0,0,1,.1.11l-.07.12a5.82,5.82,0,0,0-.34.65c-.11.29-.14.4-.18.53a5.26,5.26,0,0,0-.12.65,5.74,5.74,0,0,0,0,.94.31.31,0,0,1,0,.11,4.64,4.64,0,0,0,.13.54,3.84,3.84,0,0,0,.36.83s0,0-.68.49l-.11.08-.87.57-.57.36-.31.21-.2.13-.21.13,0,0-.31.2-1.16.76-.23.14-.08-.07a3.52,3.52,0,0,0-1.47-.8,3.42,3.42,0,0,0-1.62,0l-.21,0a4,4,0,0,0-.8.36,3.33,3.33,0,0,0-1.09,1.05,3.57,3.57,0,0,0-.45,1,.13.13,0,0,1,0,.08,3.19,3.19,0,0,0-.06.61,3.37,3.37,0,0,0,.16,1.1,3,3,0,0,0,.22.49l0,.06a4.22,4.22,0,0,0,.3.46,3.53,3.53,0,0,0,1.13.92l.22.1.35.12.14,0a1.08,1.08,0,0,0,.25.05l.08,0a4.26,4.26,0,0,0,1,0l.11,0a4,4,0,0,0,.52-.14l.15-.06a3.43,3.43,0,0,0,1.55-1.25l.12-.2a1.09,1.09,0,0,0,.08-.15,4.12,4.12,0,0,0,.27-.72.24.24,0,0,1,0-.09,3.16,3.16,0,0,0,.06-.64,3,3,0,0,0,0-.36.68.68,0,0,1,0-.14,3.51,3.51,0,0,0-.2-.77s0,0,.13-.11l.15-.1.18-.11.26-.17,2-1.32.42-.28.26-.17a.91.91,0,0,0,.2-.13l.87-.56.3-.2.06,0,.21.16.18.14h0l.09.06.52.27a4.9,4.9,0,0,0,1.23.33h.15a3.64,3.64,0,0,0,.66,0h.17l.13,0h.09l.18,0,.16,0L42.1,51A4.45,4.45,0,0,0,44,49.68a4.38,4.38,0,0,0,.8-1.6c0-.07,0-.14,0-.15a3.51,3.51,0,0,0,.08-.85,2.79,2.79,0,0,0,0-.61,4.12,4.12,0,0,0-1-2.08A4.19,4.19,0,0,0,41.11,43a5.61,5.61,0,0,0-.92,0L40,43l-.17,0a4.82,4.82,0,0,0-.62.2,4.51,4.51,0,0,0-.93.51l-.06.05-.06-.07-.23-.25-.22-.25-.1-.1L37.43,43l-.18-.2-.11-.12-.45-.49-.09-.1-.35-.39-.33-.35-.17-.2-.35-.38-.17-.19-.32-.35c-.22-.25-.46-.5-.51-.55l-.1-.12-.24-.26-.29-.32-.14-.16.1-.09c.27-.26.6-.6.81-.85a.4.4,0,0,1,.09-.11s.39-.53.5-.7.28-.45.31-.51l.06-.1c.08-.15.27-.52.35-.72l.1-.24a7.88,7.88,0,0,0,.37-1.2c0-.24,0-.23.08-.4a.63.63,0,0,1,0-.16,1.09,1.09,0,0,0,0-.13l0-.12,0-.12a1.38,1.38,0,0,1,0-.14,13.22,13.22,0,0,0,0-1.56c0-.24-.07-.66-.08-.71a.41.41,0,0,1,0-.09s0-.12,0-.19a1.16,1.16,0,0,0,0-.16.56.56,0,0,0,0-.07.19.19,0,0,1,0-.08A11.21,11.21,0,0,0,35.88,29l-.05-.1a10.6,10.6,0,0,0-.58-1.11.79.79,0,0,1-.06-.1s-.23-.34-.36-.52-.47-.58-.5-.61l-.1-.1-.08-.09.23-.24.84-.86.9-.91,1.6-1.64c.11-.1.49-.5.86-.88l.87-.88.83-.84.87-.89.24-.25.12.08a4.1,4.1,0,0,0,1.77.57,5.05,5.05,0,0,0,.79,0l.13,0,.09,0h.07a4.12,4.12,0,0,0,1.53-.66,3.82,3.82,0,0,0,1.18-1.38,3.36,3.36,0,0,0,.29-.73c0-.07,0-.15,0-.17s0-.38,0-.79a2.62,2.62,0,0,0-.13-1.26,4.4,4.4,0,0,0-.61-1.14l-.09-.11a4.67,4.67,0,0,0-.5-.49,4.86,4.86,0,0,0-.42-.3l-.08,0-.47-.23,0,0-.18-.07c-.07,0-.41-.12-.49-.14h-.08l-.12,0c-.05,0-.09,0-.09,0l-.54,0A4.32,4.32,0,0,0,43,12l-.16,0a3.94,3.94,0,0,0-1,.34A3.81,3.81,0,0,0,40.1,14a4.12,4.12,0,0,0-.38,1.19.39.39,0,0,1,0,.13s0,.17,0,.34a2.74,2.74,0,0,0,0,.61c0,.21.05.27.05.28s0,0,0,.07a4.88,4.88,0,0,0,.23.67,4,4,0,0,0,.33.59l.07.12s-.15.17-1.1,1.14l-.84.86c-.11.1-.48.48-.83.84l-.84.86c-.11.11-.5.5-.85.87l-.87.88-.85.87-.85.86-.22.22L33,25.33c-.13-.1-.3-.23-.37-.27a9.2,9.2,0,0,0-3-1.28l-.08,0c-.1,0-.51-.09-.58-.09l-.13,0-.15,0H28.5a12.29,12.29,0,0,0-1.6,0l-.18,0-.15,0-.11,0-.19,0-.16,0-.24.05-.2,0a3.26,3.26,0,0,1-.13-.37c0-.15-.1-.34-.13-.43s-.1-.31-.16-.52-.16-.51-.22-.69c-.14-.46-.18-.58-.28-.88l-.35-1.14-.21-.66.16-.07.16-.07s0,0,0,0l.8-.32,1-.41.23-.1.6-.24,1-.42.63-.26.67-.28.14-.06.13-.05.15-.07.16-.06.4-.17.38-.15.85-.36.73-.31.68-.27.09,0,.44-.19L34,15c.07,0,.29-.13.85-.36l.6-.26a5.41,5.41,0,0,0-.18-.63c-.39-1.28-.41-1.34-.49-1.59,0,0-.06-.2-.1-.32s-.09-.31-.16-.53L34.37,11c0-.14-.1-.32-.13-.42s-.06-.22-.08-.29a2,2,0,0,1-.08-.26,2.62,2.62,0,0,1-.1-.3c0-.09-.06-.21-.08-.26s0-.09,0-.12a2.55,2.55,0,0,0,.92-1A3.08,3.08,0,0,0,35,7.6c0-.09,0-.56,0-.67a2.68,2.68,0,0,0-.22-.73,2.15,2.15,0,0,0-.24-.39l0,0A2.92,2.92,0,0,0,34,5.24a2.6,2.6,0,0,0-1.16-.45A4.55,4.55,0,0,0,32.36,4.77ZM28.19,27.58l.16,0h.15l.17,0,.19,0,.59.18a4.8,4.8,0,0,1,2,1.43,4.45,4.45,0,0,1,.59.91,2.3,2.3,0,0,1,.18.39l.06.17a3.75,3.75,0,0,1,.21.83l0,.09a6.92,6.92,0,0,1,0,1.06c0,.19-.07.5-.09.57l0,.07a5.46,5.46,0,0,1-.2.63,5,5,0,0,1-.57,1.06l-.16.19a4.65,4.65,0,0,1-2.41,1.6,4.18,4.18,0,0,1-.51.12l-.16,0A5.72,5.72,0,0,1,27,37h-.1l-.08,0-.15,0a5,5,0,0,1-1.39-.55l-.07,0h0s0,0-.08-.06l-.46-.34-.13-.11A4.79,4.79,0,0,1,23,33a5,5,0,0,1,0-1.28,3,3,0,0,1,.06-.36c0-.09,0-.2.05-.26a.45.45,0,0,0,0-.11s0,0,0,0a.54.54,0,0,1,0-.12,4.74,4.74,0,0,1,1.44-2.13,5.11,5.11,0,0,1,1.32-.8,6.56,6.56,0,0,1,.73-.23l.16,0a2.73,2.73,0,0,1,.51-.07c.06,0,.11,0,.11,0Z" transform="translate(-6.47 -4.77)"/><path class="cls-1" d="M39.5,7.26l-.08,0a1.84,1.84,0,0,0-1.06.52,1.48,1.48,0,0,0-.32.41,2,2,0,0,0-.21.56,2.21,2.21,0,0,0,0,.81,2.14,2.14,0,0,0,.32.64,1.63,1.63,0,0,0,.34.35l.11.08a1.87,1.87,0,0,0,1.66.23A1.9,1.9,0,0,0,41.55,9.4,1.88,1.88,0,0,0,40,7.28Z" transform="translate(-6.47 -4.77)"/><path class="cls-1" d="M11.78,10.08a2,2,0,0,0-1.26.76,2.39,2.39,0,0,0-.28.58,1.84,1.84,0,0,0,1,2.15,1.88,1.88,0,0,0,2.18-.34,2,2,0,0,0,.31-.39s0,0,0,0a2.5,2.5,0,0,0,.16-.42,1.69,1.69,0,0,0,0-.24,2.9,2.9,0,0,0,0-.51c0-.07,0-.16,0-.17a2.28,2.28,0,0,0-.13-.36,1.94,1.94,0,0,0-.85-.85,2.19,2.19,0,0,0-.53-.17A2.42,2.42,0,0,0,11.78,10.08Z" transform="translate(-6.47 -4.77)"/><path class="cls-1" d="M31.88,17.75l-.15,0a2.16,2.16,0,0,0-.48.09,2.13,2.13,0,0,0-.73.47l-.15.17a.28.28,0,0,1-.05.08,1.85,1.85,0,0,0-.26.57s0,0,0,.05a1.44,1.44,0,0,0,0,.24,1.89,1.89,0,0,0,1.62,2h.53a1.87,1.87,0,0,0,1.53-1.3,1.09,1.09,0,0,0,.07-.32,1.85,1.85,0,0,0-1-1.89,1.71,1.71,0,0,0-.35-.13l-.31-.05-.14,0Z" transform="translate(-6.47 -4.77)"/><path class="cls-1" d="M8.16,40.63H8.07a1.66,1.66,0,0,0-.5.13,1.77,1.77,0,0,0-.62.41,1.75,1.75,0,0,0-.35.47c-.13.26-.13.27-.13.83a1.93,1.93,0,0,0,0,.6,1.89,1.89,0,0,0,1.77,1.26A1.86,1.86,0,0,0,9.38,41a1.89,1.89,0,0,0-.86-.33A2.35,2.35,0,0,0,8.16,40.63Z" transform="translate(-6.47 -4.77)"/><path class="cls-1" d="M28.21,44.41a1.9,1.9,0,0,0-1.49,1.19l0,.15a2,2,0,0,0,0,1,1.22,1.22,0,0,0,.08.23,1.89,1.89,0,0,0,.92,1l.39.14.1,0a2,2,0,0,0,.94-.07,1.94,1.94,0,0,0,.93-.68,1.84,1.84,0,0,0,.27-1.65,1.91,1.91,0,0,0-2.08-1.27Z" transform="translate(-6.47 -4.77)"/></svg>