<?xml version="1.0" standalone="no"?>
<!DOCTYPE svg PUBLIC "-//W3C//DTD SVG 20010904//EN"
 "http://www.w3.org/TR/2001/REC-SVG-20010904/DTD/svg10.dtd">
<svg version="1.0" xmlns="http://www.w3.org/2000/svg"
 width="848.000000pt" height="848.000000pt" viewBox="0 0 848.000000 848.000000"
 preserveAspectRatio="xMidYMid meet">
<metadata>
Created by potrace 1.11, written by Peter Selinger 2001-2013
</metadata>
<g transform="translate(0.000000,848.000000) scale(0.100000,-0.100000)"
fill="#000000" stroke="none">
<path d="M5006 8464 c-109 -34 -229 -149 -252 -240 -4 -15 -13 -38 -19 -51
-14 -28 -11 -154 6 -198 32 -85 56 -123 107 -173 69 -68 152 -108 230 -111 31
-1 59 -4 61 -7 6 -6 79 -234 97 -304 8 -30 33 -113 55 -183 22 -71 38 -136 34
-144 -3 -9 -8 -13 -12 -10 -3 4 -11 3 -17 -2 -6 -5 -56 -28 -111 -51 -55 -23
-113 -48 -129 -56 -16 -8 -33 -14 -39 -14 -5 0 -23 -6 -40 -14 -78 -35 -126
-56 -131 -56 -3 0 -30 -11 -60 -25 -30 -14 -57 -25 -60 -25 -3 0 -29 -11 -58
-24 -46 -20 -115 -49 -183 -77 -11 -4 -46 -19 -78 -33 -32 -14 -63 -26 -70
-26 -7 0 -17 -4 -22 -8 -6 -5 -57 -28 -115 -51 -58 -24 -117 -49 -131 -57 -14
-7 -28 -11 -31 -8 -3 2 -11 -2 -18 -11 -7 -8 -19 -15 -27 -15 -8 0 -29 -6 -46
-14 -93 -42 -208 -88 -212 -85 -2 3 -6 16 -8 29 -5 24 -10 42 -24 78 -3 9 -7
22 -9 27 -1 6 -19 62 -39 125 -20 63 -39 126 -41 139 -3 13 -9 32 -14 42 -16
29 -12 36 33 62 23 14 53 35 67 47 14 12 32 27 40 34 26 19 100 111 100 124 0
7 4 12 9 12 10 0 40 67 66 150 26 80 22 324 -7 399 -34 92 -81 164 -149 231
-144 143 -294 200 -509 195 -91 -2 -116 -6 -185 -33 -211 -83 -357 -252 -402
-467 -19 -91 -11 -248 16 -317 6 -16 9 -28 7 -28 -3 0 13 -33 34 -72 110 -209
320 -343 550 -353 36 -2 74 -4 85 -4 21 -1 33 -23 55 -101 7 -25 15 -52 18
-60 3 -8 6 -17 7 -20 2 -12 38 -128 50 -165 8 -22 21 -67 30 -100 16 -56 45
-151 145 -472 23 -73 41 -135 41 -138 -1 -3 6 -22 13 -42 8 -21 22 -65 32 -98
21 -72 19 -67 27 -85 10 -24 46 -154 44 -156 -1 -1 -45 -23 -97 -49 -199 -99
-348 -222 -491 -407 -64 -84 -158 -237 -150 -247 1 -2 -1 -7 -6 -10 -18 -13
-86 -201 -98 -271 -3 -18 -8 -37 -11 -41 -17 -28 -26 -441 -11 -534 26 -165
100 -343 210 -508 93 -140 164 -214 345 -362 3 -3 -115 -182 -128 -195 -3 -3
-39 -54 -80 -115 -40 -60 -78 -111 -82 -113 -4 -2 -8 -7 -8 -12 0 -11 -171
-264 -181 -268 -5 -2 -9 -10 -9 -18 0 -16 -21 -19 -36 -5 -15 14 -125 49 -179
57 -59 8 -297 8 -340 0 -16 -4 -39 -10 -50 -15 -11 -5 -46 -19 -79 -32 -87
-33 -192 -107 -268 -187 -38 -40 -68 -76 -68 -82 0 -5 -4 -10 -10 -10 -5 0
-10 -6 -10 -14 0 -8 -3 -16 -7 -18 -10 -4 -65 -115 -78 -158 -30 -100 -34
-123 -37 -240 -1 -59 8 -162 17 -200 16 -65 66 -181 104 -240 49 -75 172 -198
242 -240 131 -78 254 -112 403 -112 61 1 126 3 144 6 51 7 186 49 193 59 3 5
9 8 13 7 13 -3 116 51 116 60 0 6 7 10 15 10 17 0 195 171 195 187 0 6 6 16
14 22 20 17 75 133 101 213 14 46 21 91 20 147 0 45 4 81 8 81 5 0 5 5 1 11
-3 6 -8 36 -10 65 -5 84 -30 171 -78 269 -43 87 -65 118 -133 194 -32 35 -32
49 -1 85 5 6 60 85 123 176 63 91 119 172 125 180 6 8 51 73 100 143 50 71 90
133 90 138 0 5 4 9 8 9 5 0 15 11 22 25 15 29 21 30 63 11 18 -7 48 -20 67
-29 53 -23 198 -67 239 -72 20 -3 56 -8 81 -11 61 -8 293 -8 353 0 26 3 68 9
95 12 138 18 333 86 467 165 66 38 69 39 89 22 12 -10 25 -24 30 -32 5 -8 20
-26 35 -41 14 -16 62 -67 106 -115 44 -48 94 -102 110 -120 17 -17 55 -60 85
-94 30 -34 75 -84 100 -110 25 -27 79 -86 120 -132 41 -46 89 -98 107 -116
l31 -33 -29 -54 c-62 -114 -83 -205 -83 -356 0 -97 13 -157 55 -249 19 -41 19
-44 2 -57 -39 -31 -618 -411 -686 -451 l-39 -23 -39 33 c-81 70 -211 117 -324
118 -238 2 -406 -96 -504 -296 -42 -85 -51 -120 -51 -213 -1 -53 1 -70 17
-147 6 -30 51 -131 75 -170 23 -36 100 -107 152 -140 80 -50 144 -67 271 -70
98 -2 123 1 185 21 208 70 354 250 365 447 2 38 5 71 8 73 2 3 -1 34 -8 69 -6
36 -10 65 -7 65 2 0 -1 7 -8 15 -20 24 -5 42 87 102 48 31 167 109 263 173 97
64 183 119 193 123 9 3 17 11 17 17 0 6 5 8 10 5 6 -3 10 -1 10 4 0 6 4 11 9
11 4 0 42 23 84 50 42 28 80 50 84 50 4 0 22 -12 38 -26 45 -39 134 -81 222
-105 63 -18 109 -22 238 -24 89 0 166 -5 173 -9 12 -7 135 47 160 71 7 7 17
13 22 13 13 0 150 136 150 149 0 6 4 11 8 11 12 0 80 139 88 178 4 18 9 32 13
32 6 0 8 25 12 180 2 103 0 117 -30 201 -64 177 -219 334 -391 395 -25 9 -52
19 -60 22 -19 7 -32 9 -95 16 -27 3 -52 6 -55 6 -3 1 -25 1 -49 0 -25 -1 -68
-3 -95 -4 -64 -2 -143 -30 -224 -78 l-62 -37 -123 123 c-67 67 -149 152 -182
190 -33 37 -76 84 -95 105 -19 21 -73 80 -120 131 -47 52 -107 118 -134 146
-84 92 -84 82 -13 155 203 208 348 493 372 729 8 71 7 361 -1 405 -3 22 -8 69
-9 105 -1 36 -3 65 -4 65 -2 0 -4 8 -7 18 -20 85 -44 150 -89 241 -51 105
-143 247 -205 316 l-40 44 64 66 c36 36 146 148 246 250 100 102 330 337 512
522 l331 337 57 -29 c52 -26 133 -54 197 -67 62 -12 231 -5 285 12 62 21 159
68 190 93 38 31 112 107 134 138 28 39 86 154 78 154 -4 0 -2 6 4 13 10 11 13
83 13 247 1 69 -23 154 -61 223 -44 77 -53 90 -123 158 -89 88 -224 144 -367
153 -90 5 -109 8 -125 18 -16 9 -88 -2 -140 -22 -155 -59 -283 -170 -347 -301
-20 -42 -39 -87 -42 -100 -3 -13 -8 -35 -11 -49 -8 -35 -8 -208 -1 -250 10
-49 54 -157 82 -197 l23 -35 -47 -48 c-78 -79 -755 -769 -938 -957 -190 -194
-172 -185 -249 -127 -46 34 -183 107 -250 133 -33 13 -69 27 -80 32 -38 16
-140 43 -171 44 -17 1 -35 4 -40 7 -20 12 -441 14 -531 3 -40 -5 -54 2 -59 30
-1 6 -14 48 -29 94 -15 46 -28 91 -30 100 -2 9 -11 36 -20 61 -9 25 -18 52
-20 60 -2 8 -11 38 -20 65 -10 28 -19 55 -20 60 -1 6 -5 17 -8 25 -3 8 -20 62
-38 120 -17 58 -34 110 -36 117 -4 10 26 27 112 62 11 5 65 27 120 50 55 22
106 41 113 41 6 0 12 5 12 12 0 6 3 9 6 5 3 -3 32 6 63 20 31 13 61 26 66 27
6 2 28 11 50 20 22 10 54 24 70 31 17 7 82 34 145 60 63 26 129 53 145 60 115
50 492 205 499 205 5 0 85 33 180 74 94 40 179 76 189 79 23 9 22 40 -7 125
-14 40 -22 72 -19 72 3 0 1 6 -4 13 -10 12 -34 92 -34 112 -1 6 -5 15 -9 20
-5 6 -11 22 -13 35 -7 33 -35 117 -53 157 -8 17 -14 37 -14 45 0 8 -3 18 -7
22 -5 4 -8 11 -8 14 -1 4 -4 16 -7 27 -4 11 -16 52 -28 92 l-22 71 66 65 c36
35 66 72 66 81 0 9 4 16 9 16 24 0 46 207 28 270 -2 8 -8 29 -12 45 -17 63
-104 171 -167 208 -92 54 -235 71 -332 41z m-431 -3635 c46 -11 193 -74 205
-88 3 -3 23 -18 46 -34 82 -55 217 -223 239 -297 4 -14 11 -29 15 -35 22 -27
43 -139 45 -235 7 -262 -88 -470 -289 -635 -24 -19 -48 -35 -55 -35 -6 0 -11
-4 -11 -8 0 -22 -205 -98 -286 -107 -21 -2 -66 -8 -99 -12 -64 -9 -187 -8
-220 0 -165 43 -327 155 -423 290 -38 53 -98 180 -106 220 -2 15 -7 31 -10 36
-17 27 -27 229 -14 306 4 27 11 70 14 95 14 112 138 297 259 386 22 16 42 31
45 34 3 3 32 20 66 37 85 46 175 71 274 79 47 4 86 7 87 8 10 8 180 4 218 -5z"/>
<path d="M6219 8079 c-140 -21 -242 -143 -245 -292 -2 -100 44 -185 132 -245
98 -66 245 -63 342 9 174 128 161 382 -24 490 -29 16 -72 32 -95 35 -24 3 -48
6 -54 8 -5 1 -31 -1 -56 -5z"/>
<path d="M1790 7625 c-92 -24 -151 -72 -198 -160 -37 -71 -37 -178 1 -250 29
-57 77 -111 107 -120 11 -3 20 -11 20 -16 0 -5 3 -8 8 -7 4 0 14 -2 22 -5 135
-54 286 -9 367 110 31 46 41 94 38 176 -3 61 -9 86 -29 121 -42 71 -99 119
-169 140 -71 22 -114 25 -167 11z"/>
<path d="M4967 6404 c-2 -2 -12 -5 -23 -7 -73 -14 -150 -79 -186 -156 -35 -76
-26 -199 21 -273 61 -96 136 -140 246 -144 126 -4 224 54 281 166 39 76 40
181 2 255 -28 54 -93 125 -115 125 -7 0 -13 4 -13 8 0 14 -95 33 -154 31 -31
-1 -57 -4 -59 -5z"/>
<path d="M1161 2739 c-57 -20 -69 -27 -117 -74 -60 -58 -74 -98 -74 -211 0
-96 1 -103 32 -148 83 -127 240 -173 372 -111 49 23 79 48 126 104 44 52 59
187 31 269 -48 138 -228 221 -370 171z"/>
<path d="M4357 2126 c-81 -40 -144 -113 -155 -179 -26 -160 29 -289 151 -356
146 -81 350 -8 420 148 43 95 19 235 -51 306 -77 77 -123 98 -232 102 -74 3
-91 0 -133 -21z"/>
</g>
</svg>
