<svg xmlns="http://www.w3.org/2000/svg" width="25pt" height="25pt" viewBox="0 0 25 25"><path d="M21.984 12.5c-1.293 0-1.293.863-2.156.863-.7 0-1.293-.425-1.293-1.293V7.328c0-.43-.433-.863-.863-.863H12.93c-.86 0-1.293-.68-1.293-1.293 0-.863.863-.863.863-2.156C12.5 1.723 11.637 0 9.484 0c-2.156 0-3.02 1.293-3.02 3.016 0 1.293.864 1.293.864 2.156 0 .715-.375 1.293-1.293 1.293H.863c-.433 0-.863.433-.863.863v4.742c0 .805.664 1.293 1.293 1.293.863 0 .863-.863 2.156-.863 1.723 0 2.586 1.293 2.586 2.586 0 .863-.863 2.586-2.586 2.586-1.293 0-1.293-.863-2.156-.863-.629 0-1.293.488-1.293 1.293v6.035c0 .433.43.863.863.863h6.035c.86 0 1.293-.715 1.293-1.293 0-.863-.863-.863-.863-2.156 0-1.723 1.293-2.586 2.586-2.586s2.586.863 2.586 2.156c0 1.723-.863 1.723-.863 2.586 0 .617.433 1.293 1.293 1.293h4.742c.43 0 .863-.43.863-.863v-5.172c0-.863.594-1.293 1.293-1.293.863 0 .863.863 2.156.863 1.723 0 3.016-.863 3.016-3.02 0-2.152-1.293-3.015-3.016-3.015zm0 0" fill="#41c19d"/></svg>