<svg xmlns="http://www.w3.org/2000/svg" width="25pt" height="20pt" viewBox="0 0 25 20"><path d="M25 18.398c0 .887-.746 1.602-1.668 1.602-.918 0-1.664-.715-1.664-1.602 0-.882.746-1.597 1.664-1.597.922 0 1.668.715 1.668 1.597zm0 0" fill="#1c74a0"/><path d="M0 1.602h22.918v17.597H0zm0 0" fill="#27a2df"/><path d="M25 18.398h-2.082v-.796h-1.25v-16H25zm0 0" fill="#1c74a0"/><path d="M21.668 18c0-.664.559-1.2 1.25-1.2.687 0 1.25.536 1.25 1.2 0 .664-.563 1.2-1.25 1.2-.691 0-1.25-.536-1.25-1.2zm0 0" fill="#27a2df"/><path d="M25 1.602c0 .882-.746 1.597-1.668 1.597-.918 0-1.664-.715-1.664-1.597 0-.887.746-1.602 1.664-1.602C24.254 0 25 .715 25 1.602zm0 0M23.332 20H0v-.8h22.918zm0 0" fill="#1c74a0"/><path d="M17.082 4H20v-.8h-2.082zm0 0M2.918 17.602H5V16.8H3.75zm0 0M5.832 16.8h10v.802h-10zm0 0M5.832 15.2h10v.8h-10zm0 0M6.25 14.398h9.582v-.796h-8.75zm0 0M16.668 16.8H20v.802h-3.332zm0 0M20 6.398h-5.418l.836-.796H20zm0 0" fill="#ebf0f2"/><path d="M19.168 4H20v1.602h-.832zm0 0M16.668 7.2H20V8h-3.332zm0 0M19.168 8H20v8.8h-.832zm0 0M16.668 8h.832v8.8h-.832zm0 0M4.168 16.8H5v-1.198l-.832.796zm0 0M15.832 8h-2.914l.832-.8h2.082zm0 0M15 8h.832v4H15zm0 0M8.75 12h7.082v.8H7.918zm0 0M14.168 9.602H11.25l.832-.801h2.086zm0 0M14.168 11.2H9.582l.836-.802h3.75zm0 0" fill="#ebf0f2"/><path d="M1.668 3.2v14.402l15-14.403zm2.5 2.402h6.25l-6.25 6zm0 0" fill="#fbd462"/></svg>