<svg xmlns="http://www.w3.org/2000/svg" width="25pt" height="26pt" viewBox="0 0 25 26"><path d="M0 3.586h25v20.621H0zm0 0" fill="#e1e6e8"/><path d="M1.852 5.379h21.296v17.035H1.852zm0 0" fill="#27a2df"/><path d="M25 .898C25 .402 24.582 0 24.074 0H.926C.418 0 0 .402 0 .898v2.688h25zm0 0" fill="#ebf0f2"/><path d="M0 25.102c0 .496.418.898.926.898h23.148c.508 0 .926-.402.926-.898v-.895H0zm0 0" fill="#d3d7d9"/><path d="M3.703 1.793a.912.912 0 01-.926.898.912.912 0 01-.925-.898c0-.496.414-.895.925-.895.512 0 .926.399.926.895zm0 0" fill="#f05f50"/><path d="M6.48 1.793a.912.912 0 01-.925.898.912.912 0 01-.926-.898c0-.496.414-.895.926-.895.511 0 .925.399.925.895zm0 0" fill="#ffbf5c"/><path d="M9.258 1.793a.912.912 0 01-.926.898.912.912 0 01-.926-.898c0-.496.414-.895.926-.895s.926.399.926.895zm0 0" fill="#41c19d"/><path d="M19.906 14.344a.468.468 0 01-.324-.13l-2.316-2.241a.439.439 0 010-.633.474.474 0 01.656 0l2.312 2.238c.18.176.18.461 0 .637a.47.47 0 01-.328.129zm0 0" fill="#fff"/><path d="M17.594 16.586a.457.457 0 01-.328-.133.439.439 0 010-.633l2.316-2.242a.477.477 0 01.652 0c.18.176.18.461 0 .637l-2.312 2.238a.47.47 0 01-.328.133zm0 0M7.406 16.586a.455.455 0 01-.324-.133l-2.316-2.238a.443.443 0 010-.637.482.482 0 01.656 0l2.312 2.242c.18.176.18.461 0 .633a.457.457 0 01-.328.133zm0 0" fill="#fff"/><path d="M5.094 14.344a.47.47 0 01-.328-.13.443.443 0 010-.636l2.316-2.238a.47.47 0 01.652 0c.18.172.18.457 0 .633l-2.312 2.242a.484.484 0 01-.328.129zm0 0M10.184 16.586a.455.455 0 01-.325-.133.432.432 0 010-.633l4.63-4.48a.47.47 0 01.652 0 .432.432 0 010 .633l-4.63 4.48a.457.457 0 01-.327.133zm0 0" fill="#fff"/></svg>