<svg xmlns="http://www.w3.org/2000/svg" width="21" height="30" viewBox="0 0 21 30"><path d="M21 2.07C21 .926 20.059 0 18.898 0H2.102C.942 0 0 .926 0 2.07v25.86C0 29.074.941 30 2.102 30h16.796c1.16 0 2.102-.926 2.102-2.07zm0 0" fill="#464748"/><path d="M1.05 4.137h18.9v21.726H1.05zm0 0" fill="#ebf0f2"/><path d="M11.55 27.93c0 .574-.472 1.035-1.05 1.035-.578 0-1.05-.461-1.05-1.035 0-.57.472-1.032 1.05-1.032.578 0 1.05.461 1.05 1.032zm0 0M6.3 1.55h8.4v1.036H6.3zm0 0" fill="#5c5d5e"/><path d="M11.023 5.172h7.875v3.105h-7.875zm0 0M2.102 5.172h7.875v7.242H2.102zm0 0M11.023 9.309h7.875v3.105h-7.875zm0 0" fill="#f05f50"/><path d="M2.102 13.45h16.796v3.1H2.102zm0 0" fill="#d3d7d9"/><path d="M2.102 17.586h7.875v3.105H2.102zm0 0" fill="#647a8a"/><path d="M11.023 17.586h7.875v3.105h-7.875zm0 0" fill="#d3d7d9"/><path d="M2.102 21.723h16.796v3.105H2.102zm0 0" fill="#647a8a"/></svg>