<svg xmlns="http://www.w3.org/2000/svg" width="25pt" height="25pt" viewBox="0 0 25 25"><path d="M6.898 15.95H.863c1.157 3.89 4.297 7.03 8.188 8.187v-6.035a7.34 7.34 0 01-2.153-2.153zm0 0M15.95 18.102v6.02c3.89-1.216 6.956-4.282 8.116-8.173h-6.105c-.512.813-1.2 1.586-2.012 2.153zm0 0M9.05 6.898V.863C5.16 2.02 2.02 5.16.864 9.051h6.035a7.34 7.34 0 012.153-2.153zm0 0M18.102 9.05h6.035C22.98 5.16 19.84 2.02 15.949.864v6.035a7.34 7.34 0 012.153 2.153zm0 0" fill="#f05f50"/><path d="M9.05 1.293h6.9v6.035h-6.9zm0 0M9.05 17.672h6.9v6.035h-6.9zm0 0M17.672 9.05h6.035v6.9h-6.035zm0 0M1.293 9.05h6.035v6.9H1.293zm0 0" fill="#ebf0f2"/><path d="M2.156 9.05H.43S0 11.208 0 12.5c0 1.293.43 3.45.43 3.45h1.726s-.433-2.157-.433-3.45c0-1.293.433-3.45.433-3.45zm0 0M24.57 9.05h-1.726s.433 2.157.433 3.45c0 1.293-.433 3.45-.433 3.45h1.726s.43-2.157.43-3.45c0-1.293-.43-3.45-.43-3.45zm0 0M9.05 22.844v1.726s2.157.43 3.45.43c1.293 0 3.45-.43 3.45-.43v-1.726s-2.157.433-3.45.433c-1.293 0-3.45-.433-3.45-.433zm0 0M12.5 0c-1.293 0-3.45.504-3.45.504v1.723s2.157-.504 3.45-.504c1.293 0 3.45.504 3.45.504V.504S13.792 0 12.5 0zm0 0" fill="#d3d7d9"/></svg>