<svg xmlns="http://www.w3.org/2000/svg" width="25pt" height="24" viewBox="0 0 25 18"><path d="M25 3.375C25 1.515 23.422 0 21.484 0h-12.5C7.047 0 5.47 1.516 5.47 3.375V4.5h2.343V3.375c0-.621.528-1.125 1.172-1.125h12.5c.645 0 1.172.504 1.172 1.125v3H25zm0 0" fill="#27a2df"/><path d="M21.484 10.5h-12.5c-.644 0-1.171-.504-1.171-1.125V8.25H5.469v1.125c0 1.86 1.578 3.375 3.515 3.375h12.5c1.938 0 3.516-1.516 3.516-3.375v-3h-2.344v3c0 .621-.527 1.125-1.172 1.125zm0 0" fill="#1c74a0"/><path d="M16.016 15.75h-12.5c-.645 0-1.172-.504-1.172-1.125v-3H0v3C0 16.485 1.578 18 3.516 18h12.5c1.937 0 3.515-1.516 3.515-3.375V13.5h-2.343v1.125c0 .621-.528 1.125-1.172 1.125zm0 0" fill="#d3d7d9"/><path d="M2.344 8.625c0-.621.527-1.125 1.172-1.125h12.5c.644 0 1.172.504 1.172 1.125V9.75h2.343V8.625c0-1.86-1.578-3.375-3.515-3.375h-12.5C1.578 5.25 0 6.766 0 8.625v3h2.344zm0 0" fill="#e1e6e8"/></svg>