<svg xmlns="http://www.w3.org/2000/svg" width="32" height="23pt" viewBox="0 0 24 23"><path d="M15 17.633H9l-.75 4.601h7.5zm0 0" fill="#ebf0f2"/><path d="M0 14.566v1.536c0 .843.672 1.53 1.5 1.53h21c.828 0 1.5-.687 1.5-1.53v-1.536zm0 0" fill="#d3d7d9"/><path d="M22.5 0h-21C.672 0 0 .688 0 1.535v13.031h24V1.536C24 .686 23.328 0 22.5 0zm0 0" fill="#464748"/><path d="M1.5 1.535h21v11.5h-21zm0 0" fill="#ebf0f2"/><path d="M16.5 22.234h-9L7.125 23h9.75zm0 0" fill="#d3d7d9"/><path d="M2.25 2.3h9.375v9.966H2.25zm0 0" fill="#ffbf5c"/><path d="M12.375 2.3h9.375v1.915h-9.375zm0 0M12.375 4.984h9.375v1.914h-9.375zm0 0M12.375 7.668h9.375v4.598h-9.375zm0 0" fill="#f05f50"/></svg>